<?xml version="1.0" encoding="utf-8"?>
<!-- Generator: Adobe Illustrator 25.2.1, SVG Export Plug-In . SVG Version: 6.00 Build 0)  -->
<svg version="1.1" id="logo" xmlns="http://www.w3.org/2000/svg" xmlns:xlink="http://www.w3.org/1999/xlink" x="0px" y="0px"
	 viewBox="0 0 400 400" style="enable-background:new 0 0 400 400;" xml:space="preserve">
<style type="text/css">
	.st0{fill:#6ECC36;}
	.st1{fill:#27AE60;}
</style>
<g>
	<g>
		<g>
			<path class="st0" d="M304.1,277.8l-147.7,85.3l0,0c-18.8-32.6-7.7-74.4,25-93.2l147.7-85.3l0,0
				C347.9,217.3,336.6,259,304.1,277.8z"/>
		</g>
		<g>
			<path class="st1" d="M95.9,122.2l147.7-85.3l0,0c18.8,32.6,7.7,74.4-25,93.2L70.9,215.4l0,0C52.1,182.7,63.3,141,95.9,122.2z"/>
		</g>
		<g>
			<path class="st0" d="M172.8,255.1l147.7-85.3l0,0c-18.8-32.6-60.6-43.8-93.2-25L79.5,230.2l0,0C98.3,262.8,140.1,274,172.8,255.1
				z"/>
		</g>
	</g>
</g>
</svg>
