<?xml version="1.0" encoding="utf-8"?>
<!-- Generator: Adobe Illustrator 25.2.1, SVG Export Plug-In . SVG Version: 6.00 Build 0)  -->
<svg version="1.1" id="logo" xmlns="http://www.w3.org/2000/svg" xmlns:xlink="http://www.w3.org/1999/xlink" x="0px" y="0px"
	 viewBox="0 0 1425.1 400" style="enable-background:new 0 0 1425.1 400;" xml:space="preserve">
<style type="text/css">
	.st0{fill:#27AE60;}
</style>
<g>
	<g>
		<path class="st0" d="M171.1,185.8c-1.3-8.7-4.5-15-9.8-19s-13.2-6-24-6c-10.2,0-18,1.2-23.2,3.6c-5.3,2.4-7.9,6.6-7.9,12.5
			c0,5.1,2.6,9.2,7.9,12.3c5.2,3.1,12.9,6,22.8,8.8c16.4,4.6,30.2,8.5,41.5,11.7s20.3,7,27.1,11.3c6.8,4.4,11.6,9.8,14.6,16.3
			c2.9,6.5,4.4,15.3,4.4,26.3c0,16.9-7,30.9-21.1,42s-34.9,16.7-62.6,16.7c-13.6,0-25.9-1.5-36.9-4.6s-20.4-7.5-28.2-13.2
			c-7.8-5.8-13.8-12.7-18-20.7c-4.2-8.1-6.5-17.1-6.7-27.1h51.5c0,9,3.5,15.9,10.6,20.7c7,4.9,16.2,7.3,27.5,7.3
			c9.5,0,17.6-1.5,24.4-4.4c6.8-2.9,10.2-7.5,10.2-13.6c0-6.9-2.5-11.9-7.5-15s-12.6-5.8-22.8-8.1c-18.4-4.1-33.3-8.4-44.5-12.9
			c-11.3-4.5-20-9.4-26.3-14.8c-6.3-5.4-10.5-11.3-12.7-17.7s-3.3-13.6-3.3-21.5c0-7.2,1.5-14,4.4-20.4s7.6-12,14-16.9
			s14.7-8.8,25-11.7c10.2-2.9,22.8-4.4,37.6-4.4c27.1,0,47,5.5,59.5,16.5s19.5,26.2,20.7,45.7h-48.2L171.1,185.8L171.1,185.8z"/>
		<path class="st0" d="M329.6,322.5c-15.4,0-29.1-2.4-41.1-7.3s-22.2-11.6-30.5-20.4c-8.3-8.7-14.7-19.2-19-31.5
			c-4.4-12.3-6.5-25.7-6.5-40.3c0-14.8,2.2-28.4,6.7-40.7s10.9-22.8,19.4-31.5c8.4-8.7,18.6-15.4,30.5-20.2
			c11.9-4.7,25.4-7.1,40.5-7.1c14.8,0,28.2,2.4,39.9,7.1c11.8,4.7,21.8,11.4,30.1,20s14.7,19,19.2,31.3s6.7,26,6.7,41.1
			s-2.2,28.7-6.7,40.9c-4.5,12.2-10.9,22.6-19.2,31.3c-8.3,8.7-18.4,15.4-30.3,20.2C357.5,320.1,344.2,322.5,329.6,322.5z
			 M329.6,280.6c30.5,0,45.7-19.2,45.7-57.6c0-38.1-15.2-57.2-45.7-57.2s-45.7,19.1-45.7,57.2C284,261.4,299.2,280.6,329.6,280.6z"
			/>
		<path class="st0" d="M534.7,322.5c-15.4,0-29.1-2.4-41.1-7.3s-22.2-11.6-30.5-20.4c-8.3-8.7-14.7-19.2-19-31.5
			c-4.4-12.3-6.5-25.7-6.5-40.3c0-14.8,2.2-28.4,6.7-40.7s10.9-22.8,19.4-31.5c8.4-8.7,18.6-15.4,30.5-20.2
			c11.9-4.7,25.4-7.1,40.5-7.1c14.8,0,28.2,2.4,39.9,7.1c11.8,4.7,21.8,11.4,30.1,20s14.7,19,19.2,31.3s6.7,26,6.7,41.1
			s-2.2,28.7-6.7,40.9c-4.5,12.2-10.9,22.6-19.2,31.3c-8.3,8.7-18.4,15.4-30.3,20.2C562.5,320.1,549.3,322.5,534.7,322.5z
			 M534.7,280.6c30.5,0,45.7-19.2,45.7-57.6c0-38.1-15.2-57.2-45.7-57.2S489,184.9,489,223C489,261.4,504.2,280.6,534.7,280.6z"/>
		<path class="st0" d="M767.8,317.5V203.1c0-14.6-2.4-24.4-7.3-29.6c-4.9-5.1-13.2-7.7-25-7.7c-25.9,0-38.8,14.5-38.8,43.4v108.3
			h-49.9V128.6h47.6v27.6c5.9-10.8,13.7-18.9,23.4-24.4s22.3-8.3,37.6-8.3c9,0,17.3,1.3,25,4s14.3,6.7,19.8,12.1
			c5.5,5.4,9.9,12,13.1,19.8s4.8,16.8,4.8,27.1v130.9L767.8,317.5L767.8,317.5z"/>
		<path class="st0" d="M959,317.5V203.1c0-14.6-2.4-24.4-7.3-29.6c-4.9-5.1-13.2-7.7-25-7.7c-25.9,0-38.8,14.5-38.8,43.4v108.3
			h-49.8V128.6h47.6v27.6c5.9-10.8,13.7-18.9,23.4-24.4s22.3-8.3,37.6-8.3c9,0,17.3,1.3,25,4s14.3,6.7,19.8,12.1
			c5.5,5.4,9.9,12,13.1,19.8s4.8,16.8,4.8,27.1v130.9L959,317.5L959,317.5z"/>
		<path class="st0" d="M1075,236.1c0.8,14.3,4.9,25.7,12.5,34.2c7.5,8.4,17.5,12.7,29.8,12.7c8.2,0,15.4-1.9,21.7-5.6
			c6.3-3.7,10.3-8.9,12.1-15.6h51.5c-5.9,19.5-16.1,34.4-30.7,44.9s-32,15.7-52.2,15.7c-63,0-94.5-34.3-94.5-102.9
			c0-14.6,2-27.8,6.1-39.6s10-21.9,17.9-30.3c7.8-8.4,17.3-14.9,28.6-19.4c11.3-4.5,24.2-6.7,38.8-6.7c29.2,0,51.3,9.3,66.2,28
			c15,18.7,22.5,46.8,22.5,84.5L1075,236.1L1075,236.1z M1153.7,204.6c-0.3-6.9-1.5-13-3.6-18.2c-2.2-5.2-5.1-9.6-8.6-13.1
			c-3.6-3.5-7.7-6-12.3-7.7c-4.6-1.7-9.3-2.5-14.2-2.5c-10,0-18.6,3.6-25.9,10.9c-7.3,7.3-11.5,17.5-12.5,30.5h77.1V204.6z"/>
		<path class="st0" d="M1327.6,193.1h46.5v53.8c0,10-1.5,19.5-4.4,28.6c-2.9,9.1-7.6,17.2-13.8,24.2c-6.3,7-14.2,12.6-23.8,16.7
			c-9.6,4.1-21.1,6.1-34.4,6.1c-13.8,0-25.6-2.1-35.3-6.1c-9.7-4.1-17.7-9.6-24-16.5s-10.8-15-13.6-24.2c-2.8-9.2-4.2-18.9-4.2-29.2
			v-169h49.2v51.1h104.3v35.3h-104.4v77.6c0,12,2.2,21.3,6.7,27.8s11.8,9.8,22.1,9.8c10,0,17.3-3.2,22.1-9.6
			c4.7-6.4,7.1-15.5,7.1-27.3L1327.6,193.1L1327.6,193.1z"/>
	</g>
</g>
</svg>
