<?xml version="1.0" encoding="utf-8"?>
<!-- Generator: Adobe Illustrator 25.2.3, SVG Export Plug-In . SVG Version: 6.00 Build 0)  -->
<svg version="1.1" id="logo" xmlns="http://www.w3.org/2000/svg" xmlns:xlink="http://www.w3.org/1999/xlink" x="0px" y="0px"
	 viewBox="0 0 1800 566.9" style="enable-background:new 0 0 1800 566.9;" xml:space="preserve">
<style type="text/css">
	.st0{fill:#6ECC36;}
	.st1{fill:#27AE60;}
	.st2{fill:#FFA61D;}
	.st3{fill:#F10000;}
	.st4{fill:#E7CC68;}
	.st5{fill:#D60000;}
	.st6{fill:#FFFFFF;}
</style>
<g>
	<g>
		<g>
			<path class="st0" d="M293.2,444.7L145.5,530l0,0c-18.8-32.6-7.7-74.4,25-93.2l147.7-85.3l0,0C337,384.2,325.8,425.9,293.2,444.7z
				"/>
		</g>
		<g>
			<path class="st1" d="M85.1,289.1l147.7-85.3l0,0c18.8,32.6,7.7,74.4-25,93.2L60.1,382.3l0,0C41.3,349.6,52.5,307.9,85.1,289.1z"
				/>
		</g>
		<g>
			<path class="st0" d="M161.9,422l147.7-85.3l0,0c-18.8-32.6-60.6-43.8-93.2-25L68.7,397.1l0,0C87.5,429.7,129.2,440.9,161.9,422z"
				/>
		</g>
	</g>
	<g>
		<path class="st1" d="M546,352.7c-1.3-8.7-4.5-15-9.8-19s-13.2-6-24-6c-10.2,0-18,1.2-23.2,3.6c-5.3,2.4-7.9,6.6-7.9,12.5
			c0,5.1,2.6,9.2,7.9,12.3c5.2,3.1,12.9,6,22.8,8.8c16.4,4.6,30.2,8.5,41.5,11.7c11.3,3.2,20.3,7,27.1,11.3
			c6.8,4.4,11.6,9.8,14.6,16.3c2.9,6.5,4.4,15.3,4.4,26.3c0,16.9-7,30.9-21.1,42s-34.9,16.7-62.6,16.7c-13.6,0-25.9-1.5-36.9-4.6
			s-20.4-7.5-28.2-13.2c-7.8-5.8-13.8-12.7-18-20.7c-4.2-8.1-6.5-17.1-6.7-27.1h51.5c0,9,3.5,15.9,10.6,20.7
			c7,4.9,16.2,7.3,27.5,7.3c9.5,0,17.6-1.5,24.4-4.4c6.8-2.9,10.2-7.5,10.2-13.6c0-6.9-2.5-11.9-7.5-15s-12.6-5.8-22.8-8.1
			c-18.4-4.1-33.3-8.4-44.5-12.9c-11.3-4.5-20-9.4-26.3-14.8c-6.3-5.4-10.5-11.3-12.7-17.7s-3.3-13.6-3.3-21.5
			c0-7.2,1.5-14,4.4-20.4s7.6-12,14-16.9s14.7-8.8,25-11.7c10.2-2.9,22.8-4.4,37.6-4.4c27.1,0,47,5.5,59.5,16.5s19.5,26.2,20.7,45.7
			H546V352.7z"/>
		<path class="st1" d="M704.5,489.4c-15.4,0-29.1-2.4-41.1-7.3s-22.2-11.6-30.5-20.4c-8.3-8.7-14.7-19.2-19-31.5
			c-4.4-12.3-6.5-25.7-6.5-40.3c0-14.8,2.2-28.4,6.7-40.7c4.5-12.3,10.9-22.8,19.4-31.5c8.4-8.7,18.6-15.4,30.5-20.2
			c11.9-4.7,25.4-7.1,40.5-7.1c14.8,0,28.2,2.4,39.9,7.1c11.8,4.7,21.8,11.4,30.1,20s14.7,19,19.2,31.3c4.5,12.3,6.7,26,6.7,41.1
			s-2.2,28.7-6.7,40.9s-10.9,22.6-19.2,31.3c-8.3,8.7-18.4,15.4-30.3,20.2C732.4,487,719.1,489.4,704.5,489.4z M704.5,447.5
			c30.5,0,45.7-19.2,45.7-57.6c0-38.1-15.2-57.2-45.7-57.2s-45.7,19.1-45.7,57.2C658.9,428.3,674.1,447.5,704.5,447.5z"/>
		<path class="st1" d="M909.6,489.4c-15.4,0-29.1-2.4-41.1-7.3s-22.2-11.6-30.5-20.4c-8.3-8.7-14.7-19.2-19-31.5
			c-4.4-12.3-6.5-25.7-6.5-40.3c0-14.8,2.2-28.4,6.7-40.7c4.5-12.3,10.9-22.8,19.4-31.5c8.4-8.7,18.6-15.4,30.5-20.2
			c11.9-4.7,25.4-7.1,40.5-7.1c14.8,0,28.2,2.4,39.9,7.1c11.8,4.7,21.8,11.4,30.1,20s14.7,19,19.2,31.3c4.5,12.3,6.7,26,6.7,41.1
			s-2.2,28.7-6.7,40.9s-10.9,22.6-19.2,31.3c-8.3,8.7-18.4,15.4-30.3,20.2C937.4,487,924.2,489.4,909.6,489.4z M909.6,447.5
			c30.5,0,45.7-19.2,45.7-57.6c0-38.1-15.2-57.2-45.7-57.2s-45.7,19.1-45.7,57.2C863.9,428.3,879.1,447.5,909.6,447.5z"/>
		<path class="st1" d="M1142.7,484.4V370c0-14.6-2.4-24.4-7.3-29.6c-4.9-5.1-13.2-7.7-25-7.7c-25.9,0-38.8,14.5-38.8,43.4v108.3
			h-49.9V295.5h47.6v27.6c5.9-10.8,13.7-18.9,23.4-24.4c9.7-5.5,22.3-8.3,37.6-8.3c9,0,17.3,1.3,25,4c7.7,2.7,14.3,6.7,19.8,12.1
			s9.9,12,13.1,19.8c3.2,7.8,4.8,16.8,4.8,27.1v130.9L1142.7,484.4L1142.7,484.4z"/>
		<path class="st1" d="M1333.9,484.4V370c0-14.6-2.4-24.4-7.3-29.6c-4.9-5.1-13.2-7.7-25-7.7c-25.9,0-38.8,14.5-38.8,43.4v108.3
			H1213V295.5h47.6v27.6c5.9-10.8,13.7-18.9,23.4-24.4c9.7-5.5,22.3-8.3,37.6-8.3c9,0,17.3,1.3,25,4c7.7,2.7,14.3,6.7,19.8,12.1
			s9.9,12,13.1,19.8c3.2,7.8,4.8,16.8,4.8,27.1v130.9L1333.9,484.4L1333.9,484.4z"/>
		<path class="st1" d="M1449.9,403c0.8,14.3,4.9,25.7,12.5,34.2c7.5,8.4,17.5,12.7,29.8,12.7c8.2,0,15.4-1.9,21.7-5.6
			c6.3-3.7,10.3-8.9,12.1-15.6h51.5c-5.9,19.5-16.1,34.4-30.7,44.9s-32,15.7-52.2,15.7c-63,0-94.5-34.3-94.5-102.9
			c0-14.6,2-27.8,6.1-39.6c4.1-11.8,10-21.9,17.9-30.3c7.8-8.4,17.3-14.9,28.6-19.4c11.3-4.5,24.2-6.7,38.8-6.7
			c29.2,0,51.3,9.3,66.2,28c15,18.7,22.5,46.8,22.5,84.5L1449.9,403L1449.9,403z M1528.6,371.5c-0.3-6.9-1.5-13-3.6-18.2
			c-2.2-5.2-5.1-9.6-8.6-13.1c-3.6-3.5-7.7-6-12.3-7.7c-4.6-1.7-9.3-2.5-14.2-2.5c-10,0-18.6,3.6-25.9,10.9s-11.5,17.5-12.5,30.5
			h77.1V371.5z"/>
		<path class="st1" d="M1702.5,360h46.5v53.8c0,10-1.5,19.5-4.4,28.6c-2.9,9.1-7.6,17.2-13.8,24.2c-6.3,7-14.2,12.6-23.8,16.7
			c-9.6,4.1-21.1,6.1-34.4,6.1c-13.8,0-25.6-2.1-35.3-6.1c-9.7-4.1-17.7-9.6-24-16.5s-10.8-15-13.6-24.2c-2.8-9.2-4.2-18.9-4.2-29.2
			v-169h49.2v51.1H1749v35.3h-104.4v77.6c0,12,2.2,21.3,6.7,27.8s11.8,9.8,22.1,9.8c10,0,17.3-3.2,22.1-9.6
			c4.7-6.4,7.1-15.5,7.1-27.3L1702.5,360L1702.5,360z"/>
	</g>
</g>
<g>
	<g>
		<g>
			<path class="st2" d="M1390.7,332.6c1.7,6.4,37.7,2.4,80.4-9.1c42.7-11.4,75.8-25.9,74.1-32.3c-0.1-0.4-136-198.7-136-198.7
				S1390.6,332.2,1390.7,332.6z"/>
			<g>
				<path class="st3" d="M1485.6,311.1c-9.9,6.3-19.7,11.6-29,16.1c4.7-1.1,9.6-2.3,14.5-3.7c11.1-3,21.6-6.2,31-9.4
					c15.9-11.8,27-24.5,34.6-35.5c-2.2-3.2-4.7-6.9-7.6-11.1C1521.1,280.3,1507.5,297.1,1485.6,311.1z"/>
				<path class="st3" d="M1465.8,287.6c-29.8,19.1-59.5,29.1-74.3,33.3c-0.6,7.4-0.9,11.7-0.9,11.7c0.1,0.2,0.3,0.4,0.4,0.6
					c0.2-0.1,0.4-0.1,0.7-0.2c14.5-3.9,47.5-14.3,81.2-36c22.4-14.3,36.8-31.1,45.7-44.6c-2.5-3.6-5-7.4-7.7-11.3
					C1503.4,254.2,1489.4,272.5,1465.8,287.6z"/>
				<path class="st3" d="M1452.6,258.7c-21.4,13.7-42.7,22.7-58.5,28.3c-0.3,4.5-0.7,8.8-1,12.8c17-5.6,41.6-15.5,66.6-31.6
					c19.8-12.7,33.4-27.3,42.4-39.8c-2.5-3.6-5-7.3-7.5-11C1486.6,229.8,1473.3,245.5,1452.6,258.7z"/>
				<path class="st3" d="M1438.3,230.1c-14.4,9.2-28.8,16.3-41.5,21.7c-0.3,4.5-0.7,8.9-1,13.2c14.7-5.9,32.1-14.1,49.7-25.4
					c17.9-11.5,30.7-24.5,39.7-36.2c-2.5-3.6-4.9-7.2-7.4-10.8C1469.5,204.3,1456.9,218.2,1438.3,230.1z"/>
				<path class="st3" d="M1430.2,199.8c-10.4,6.7-20.9,12.3-30.7,16.9c-0.3,4.5-0.7,9-1,13.4c12.1-5.4,25.4-12.2,38.9-20.8
					c13.7-8.8,24.4-18.5,32.8-27.8c-2.4-3.5-4.8-7-7.2-10.5C1455,180.6,1444.4,190.8,1430.2,199.8z"/>
				<path class="st3" d="M1422.1,169.6c-6.7,4.3-13.3,8-19.8,11.4c-0.4,4.5-0.7,9.2-1.1,13.8c9-4.4,18.5-9.6,28-15.8
					c10-6.4,18.3-13.3,25.4-20.2c-2.4-3.5-4.7-6.8-7-10.2C1440.8,155.8,1432.4,163,1422.1,169.6z"/>
				<path class="st3" d="M1411,144.8c-2.1,1.3-4.1,2.6-6.2,3.8c-0.4,4.6-0.7,9.4-1.1,14.3c4.8-2.7,9.6-5.5,14.5-8.6
					c8.3-5.4,15.6-11,21.8-16.8c-2.4-3.5-4.7-6.9-6.9-10.1C1426.9,133.4,1419.6,139.3,1411,144.8z"/>
				<path class="st3" d="M1407.5,113.3c-0.3,4.4-0.7,9.4-1.2,14.9c1.4-0.8,2.7-1.7,4.1-2.6c5.2-3.3,9.9-6.8,14.3-10.3
					c-2.5-3.7-4.8-7-6.8-9.9C1414.8,108.1,1411.3,110.7,1407.5,113.3z"/>
			</g>
		</g>
		<polygon class="st4" points="1446.8,335 1409.1,92.5 1390.7,332.6 		"/>
	</g>
	<path class="st3" d="M1405.8,66.5c-1.4,9.7,3.3,25.6,3.3,25.6s1.9-17,10-22.4c8-5.4,15.2-8.6,15.2-8.6l-14.8-15.7
		C1419.4,45.4,1407.2,56.8,1405.8,66.5z"/>
	<path class="st2" d="M1376.7,56.9l-4.9,21c0,0,7.8-0.8,17.4-0.2c9.6,0.6,19.8,14.4,19.8,14.4s-3.9-16.1-10-23.8
		C1393,60.6,1376.7,56.9,1376.7,56.9z"/>
	<path class="st2" d="M1409.1,92.2c0,0,8.8-8.5,12.4-10.5c3.6-2,10.6-1.1,10.6-1.1l-2.9-14.2c0,0-4.6,2.2-10.5,6.9
		C1412.8,77.9,1409.1,92.2,1409.1,92.2z"/>
	<path class="st3" d="M1398.5,75.6c-5.7-2-10-1.7-10-1.7l-0.9,19.3c0,0,6.1-5.6,9.4-5.5c3.4,0.1,12.1,4.9,12.1,4.9
		S1404.2,77.6,1398.5,75.6z"/>
	<path class="st3" d="M1377.1,322.4l-1,14.2c0,0,4.2-2.8,8.8-3.6c8.8-1.6,16.2,2.4,16.2,2.4s-2.1-2.3-10.6-8.2
		C1382,321.4,1377.1,322.4,1377.1,322.4z"/>
	<path class="st5" d="M1382.7,336.7l4.6,9.9c0,0,1.3-3.7,3.6-6.3c4.3-5,9.9-5.6,9.9-5.6s-2-0.6-8.9-0.7S1382.7,336.7,1382.7,336.7z"
		/>
	<path class="st2" d="M1387.8,325.9c0,0,4.6,0.9,7.9,3.4c6.3,4.8,7.5,12.6,7.5,12.6s0.6-3,0.2-12.9c-0.4-9.9-4-12.5-4-12.5
		L1387.8,325.9z"/>
	<path class="st2" d="M1392.8,338.5l6.8,10.1c0,0,1.6-3.7,4.6-6.2c5.6-4.8,13.2-5.3,13.2-5.3s-2.8-0.6-12.2-1
		C1395.9,335.7,1392.8,338.5,1392.8,338.5z"/>
	<path class="st5" d="M1399.8,326.9l-1,14.2c0,0,4.2-2.8,8.8-3.6c8.8-1.6,16.2,2.4,16.2,2.4s-2.1-2.3-10.6-8.2
		C1404.7,325.9,1399.8,326.9,1399.8,326.9z"/>
	<path class="st5" d="M1414.6,336.3c-4.1,2.3-9.1,2.8-9.1,2.8l10.4,10.1c0,0,4.4-2.3,6.9-12.1c2.4-9.8,2.5-12.9,2.5-12.9
		S1422.3,331.9,1414.6,336.3z"/>
	<path class="st5" d="M1432.9,327.7c-2.8-3.2-3.7-7.6-3.7-7.6l-10.5,11.2c0,0,2.8,3.5,13.8,3.9c11,0.4,14.4-0.2,14.4-0.2
		S1438.2,333.8,1432.9,327.7z"/>
	<path class="st2" d="M1409,330.2c0,0,4.6,0.9,7.9,3.4c6.3,4.8,7.5,12.6,7.5,12.6s0.6-3,0.2-12.9s-4-12.5-4-12.5L1409,330.2z"/>
	<path class="st5" d="M1482,316c-0.5,6.1-4.9,9.6-4.9,9.6s2.1-0.6,8-4c5.9-3.5,6.1-6.9,6.1-6.9l-10.2-5.4
		C1481.1,309.2,1482.3,312.8,1482,316z"/>
	<path class="st5" d="M1493.8,311.1c0,0,4.6,0.9,7.9,3.4c6.3,4.8,7.5,12.6,7.5,12.6s0.6-3,0.2-12.9c-0.4-9.9-4-12.5-4-12.5
		L1493.8,311.1z"/>
	<path class="st2" d="M1417.6,337.2l6.8,10.1c0,0,1.6-3.7,4.6-6.2c5.6-4.8,13.2-5.3,13.2-5.3s-2.8-0.6-12.2-1
		C1420.7,334.3,1417.6,337.2,1417.6,337.2z"/>
	<path class="st2" d="M1494.4,313.2c-6.7,7.2-15.6,8.3-15.6,8.3s3.2,0.8,14.2,0.9c11,0.1,14.6-4.1,14.6-4.1l-7.8-14.4
		C1499.9,304,1498,309.4,1494.4,313.2z"/>
	<path class="st3" d="M1537.6,289.9c-4.4,9.3-5.1,12.4-5.1,12.4s4.5-7.1,12.8-10.1c4.4-1.6,9.4-1.3,9.4-1.3l-8-11.8
		C1546.8,279,1542,280.5,1537.6,289.9z"/>
	<path class="st5" d="M1427.7,337.3l11.7,8.9c0,0,0.4-4.6,2.7-8.3c4.5-7.1,12.9-10.1,12.9-10.1s-3.4,0.2-14.2,2.8
		C1430.1,333.2,1427.7,337.3,1427.7,337.3z"/>
	<path class="st5" d="M1539.7,296.3c-5.9,3.5-7.4,5-7.4,5s5.2-2.2,11.4-0.1c3.3,1.1,6.3,3.7,6.3,3.7l-1-10.9
		C1549.1,294.1,1545.6,292.8,1539.7,296.3z"/>
	<path class="st5" d="M1527.3,297.8c4.6,8.7,6.6,11.1,6.6,11.1s-2.8-7.4,0.2-14.7c1.6-3.9,5.2-6.9,5.2-6.9l-14.8-2.3
		C1524.5,285,1522.6,289.1,1527.3,297.8z"/>
	<path class="st3" d="M1436.6,329.5c-4.6-0.6-8.6-3.2-8.6-3.2l0,14.2c0,0,4.8,0.8,13.7-5.5c8.9-6.3,11.2-8.7,11.2-8.7
		S1445.3,330.6,1436.6,329.5z"/>
	<path class="st3" d="M1443.7,322.8c-1.9-2.7-2.5-6.9-2.5-6.9l-7.5,12.7c0,0,2,3,9.7,1.6c7.7-1.4,10.1-2.5,10.1-2.5
		S1447.3,327.9,1443.7,322.8z"/>
	<path class="st2" d="M1446.8,331.3c-3.5,2.7-8.2,3.8-8.2,3.8l11,8.8c0,0,3.8-2.8,4.9-12.7c1-9.9,0.7-12.9,0.7-12.9
		S1453.5,326.2,1446.8,331.3z"/>
	<path class="st5" d="M1456.6,319.2c-2.8-2.4-4.1-6-4.1-6l-7.6,10.4c0,0,2.9,2.7,12.3,1.8c9.4-0.8,12.3-1.6,12.3-1.6
		S1461.9,323.7,1456.6,319.2z"/>
	<path class="st5" d="M1454.8,327.4c-3.7,2.8-8.6,4-8.6,4l12.1,8.5c0,0,4-2.9,4.8-12.8s0.3-12.9,0.3-12.9S1461.7,322.1,1454.8,327.4
		z"/>
	<path class="st2" d="M1529.2,304.8c-8,5-10,6.9-10,6.9s6.8-3.3,14.1-2c3.8,0.7,7.1,3.1,7.1,3.1l0.9-12.1
		C1541.2,300.7,1537.2,299.8,1529.2,304.8z"/>
	<path class="st3" d="M1520.2,305.1c-4.4,9.3-5.1,12.4-5.1,12.4s4.5-7.1,12.8-10.1c4.4-1.6,9.4-1.3,9.4-1.3l-8-11.8
		C1529.4,294.2,1524.6,295.7,1520.2,305.1z"/>
	<path class="st5" d="M1521.2,309.7c-8.8,0.1-15.2-5.1-15.2-5.1s1.6,2.6,8.6,9.9c7,7.3,12,7.1,12,7.1l4-14
		C1530.6,307.6,1525.9,309.6,1521.2,309.7z"/>
	<path class="st2" d="M1511,312.1c4.6,8.7,6.6,11.1,6.6,11.1s-2.8-7.4,0.2-14.7c1.6-3.9,5.2-6.9,5.2-6.9l-14.8-2.3
		C1508.3,299.3,1506.4,303.3,1511,312.1z"/>
	<path class="st3" d="M1507.1,316c-8,5-10,6.9-10,6.9s6.8-3.3,14.1-2c3.8,0.7,7.1,3.1,7.1,3.1l0.9-12.1
		C1519.1,312,1515,311.1,1507.1,316z"/>
	<path class="st2" d="M1504.9,321.4c-7.4,1.5-13.1-1.7-13.1-1.7s1.5,1.9,7.9,6.7c6.4,4.8,10.6,3.8,10.6,3.8l2.2-12
		C1512.5,318.2,1508.8,320.6,1504.9,321.4z"/>
	<path class="st3" d="M1492.6,318.7c-9.2,6.1-11.6,8.6-11.6,8.6s7.9-4.1,16.6-2c4.6,1.1,8.4,4.3,8.4,4.3l0.7-15.6
		C1506.7,313.9,1501.9,312.5,1492.6,318.7z"/>
	<path class="st2" d="M1486.8,322.8c-8.4,1.7-16-1.9-16-1.9s2.3,2.1,11.1,7.6c8.8,5.4,13.5,4.4,13.5,4.4l-0.4-13.6
		C1495,319.1,1491.2,321.9,1486.8,322.8z"/>
	<path class="st5" d="M1471.4,319.3c-1.2,7.7-7.2,12.2-7.2,12.2s2.8-0.9,11-5.5c8.2-4.7,8.7-9,8.7-9l-13.2-6.1
		C1470.7,310.9,1472,315.3,1471.4,319.3z"/>
	<path class="st2" d="M1468.7,327.4c-8.4-0.5-14.5-6-14.5-6s1.5,2.7,8.1,10.3c6.6,7.6,11.3,7.7,11.3,7.7l4-13.4
		C1477.6,326,1473.1,327.7,1468.7,327.4z"/>
	<path class="st3" d="M1460.3,323.8c0,0,2.6,1.8,12.5,5.8c9.8,4,14.4,2,14.4,2l-2.5-13.9c0,0-3.5,3.5-7.8,5.2
		C1468.6,326.2,1460.3,323.8,1460.3,323.8z"/>
	<path class="st3" d="M1460,326.3c4.1,9,6.1,11.4,6.1,11.4s-2.4-7.6,1.5-14.9c2-3.9,6-6.9,6-6.9l-15.4-2.6
		C1458.2,313.3,1455.9,317.4,1460,326.3z"/>
	<path class="st3" d="M1407.7,87.2c-3.3,0.9-5.4,4-4.6,6.9c0.8,2.9,4.1,4.6,7.4,3.7c3.3-0.9,5.4-4,4.6-6.9
		C1414.4,88,1411,86.3,1407.7,87.2z"/>
	<polygon class="st6" points="1409.2,92.7 1539.7,296.3 1506.7,313.9 	"/>
</g>
</svg>
