<?xml version="1.0" encoding="utf-8"?>
<!-- Generator: Adobe Illustrator 25.2.3, SVG Export Plug-In . SVG Version: 6.00 Build 0)  -->
<svg version="1.1" id="logo" xmlns="http://www.w3.org/2000/svg" xmlns:xlink="http://www.w3.org/1999/xlink" x="0px" y="0px"
	 viewBox="0 0 1800 400" style="enable-background:new 0 0 1800 400;" xml:space="preserve">
<style type="text/css">
	.st0{fill:#6ECC36;}
	.st1{fill:#27AE60;}
	.st2{fill:#D60000;}
	.st3{fill:#C40000;}
	.st4{fill:#C9DDE7;}
	.st5{fill:#DCD7DF;}
	.st6{fill:#F10000;}
	.st7{fill:#EBF3EF;}
	.st8{fill:#FF0000;}
</style>
<g>
	<g>
		<g>
			<path class="st0" d="M293.2,277.8l-147.7,85.3l0,0c-18.8-32.6-7.7-74.4,25-93.2l147.7-85.3l0,0C337,217.3,325.8,259,293.2,277.8z
				"/>
		</g>
		<g>
			<path class="st1" d="M85.1,122.2l147.7-85.3l0,0c18.8,32.6,7.7,74.4-25,93.2L60.1,215.4l0,0C41.3,182.7,52.5,141,85.1,122.2z"/>
		</g>
		<g>
			<path class="st0" d="M161.9,255.1l147.7-85.3l0,0c-18.8-32.6-60.6-43.8-93.2-25L68.7,230.2l0,0C87.5,262.8,129.2,274,161.9,255.1
				z"/>
		</g>
	</g>
	<g>
		<path class="st1" d="M546,185.8c-1.3-8.7-4.5-15-9.8-19s-13.2-6-24-6c-10.2,0-18,1.2-23.2,3.6c-5.3,2.4-7.9,6.6-7.9,12.5
			c0,5.1,2.6,9.2,7.9,12.3c5.2,3.1,12.9,6,22.8,8.8c16.4,4.6,30.2,8.5,41.5,11.7s20.3,7,27.1,11.3c6.8,4.4,11.6,9.8,14.6,16.3
			c2.9,6.5,4.4,15.3,4.4,26.3c0,16.9-7,30.9-21.1,42s-34.9,16.7-62.6,16.7c-13.6,0-25.9-1.5-36.9-4.6s-20.4-7.5-28.2-13.2
			c-7.8-5.8-13.8-12.7-18-20.7c-4.2-8.1-6.5-17.1-6.7-27.1h51.5c0,9,3.5,15.9,10.6,20.7c7,4.9,16.2,7.3,27.5,7.3
			c9.5,0,17.6-1.5,24.4-4.4c6.8-2.9,10.2-7.5,10.2-13.6c0-6.9-2.5-11.9-7.5-15s-12.6-5.8-22.8-8.1c-18.4-4.1-33.3-8.4-44.5-12.9
			c-11.3-4.5-20-9.4-26.3-14.8c-6.3-5.4-10.5-11.3-12.7-17.7s-3.3-13.6-3.3-21.5c0-7.2,1.5-14,4.4-20.4s7.6-12,14-16.9
			s14.7-8.8,25-11.7c10.2-2.9,22.8-4.4,37.6-4.4c27.1,0,47,5.5,59.5,16.5s19.5,26.2,20.7,45.7H546V185.8z"/>
		<path class="st1" d="M704.5,322.5c-15.4,0-29.1-2.4-41.1-7.3s-22.2-11.6-30.5-20.4c-8.3-8.7-14.7-19.2-19-31.5
			c-4.4-12.3-6.5-25.7-6.5-40.3c0-14.8,2.2-28.4,6.7-40.7s10.9-22.8,19.4-31.5c8.4-8.7,18.6-15.4,30.5-20.2
			c11.9-4.7,25.4-7.1,40.5-7.1c14.8,0,28.2,2.4,39.9,7.1c11.8,4.7,21.8,11.4,30.1,20s14.7,19,19.2,31.3s6.7,26,6.7,41.1
			s-2.2,28.7-6.7,40.9c-4.5,12.2-10.9,22.6-19.2,31.3c-8.3,8.7-18.4,15.4-30.3,20.2C732.4,320.1,719.1,322.5,704.5,322.5z
			 M704.5,280.6c30.5,0,45.7-19.2,45.7-57.6c0-38.1-15.2-57.2-45.7-57.2s-45.7,19.1-45.7,57.2C658.9,261.4,674.1,280.6,704.5,280.6z
			"/>
		<path class="st1" d="M909.6,322.5c-15.4,0-29.1-2.4-41.1-7.3s-22.2-11.6-30.5-20.4c-8.3-8.7-14.7-19.2-19-31.5
			c-4.4-12.3-6.5-25.7-6.5-40.3c0-14.8,2.2-28.4,6.7-40.7s10.9-22.8,19.4-31.5c8.4-8.7,18.6-15.4,30.5-20.2
			c11.9-4.7,25.4-7.1,40.5-7.1c14.8,0,28.2,2.4,39.9,7.1c11.8,4.7,21.8,11.4,30.1,20s14.7,19,19.2,31.3s6.7,26,6.7,41.1
			s-2.2,28.7-6.7,40.9c-4.5,12.2-10.9,22.6-19.2,31.3c-8.3,8.7-18.4,15.4-30.3,20.2C937.4,320.1,924.2,322.5,909.6,322.5z
			 M909.6,280.6c30.5,0,45.7-19.2,45.7-57.6c0-38.1-15.2-57.2-45.7-57.2s-45.7,19.1-45.7,57.2C863.9,261.4,879.1,280.6,909.6,280.6z
			"/>
		<path class="st1" d="M1142.7,317.5V203.1c0-14.6-2.4-24.4-7.3-29.6c-4.9-5.1-13.2-7.7-25-7.7c-25.9,0-38.8,14.5-38.8,43.4v108.3
			h-49.9V128.6h47.6v27.6c5.9-10.8,13.7-18.9,23.4-24.4c9.7-5.5,22.3-8.3,37.6-8.3c9,0,17.3,1.3,25,4s14.3,6.7,19.8,12.1
			c5.5,5.4,9.9,12,13.1,19.8s4.8,16.8,4.8,27.1v130.9L1142.7,317.5L1142.7,317.5z"/>
		<path class="st1" d="M1333.9,317.5V203.1c0-14.6-2.4-24.4-7.3-29.6c-4.9-5.1-13.2-7.7-25-7.7c-25.9,0-38.8,14.5-38.8,43.4v108.3
			H1213V128.6h47.6v27.6c5.9-10.8,13.7-18.9,23.4-24.4c9.7-5.5,22.3-8.3,37.6-8.3c9,0,17.3,1.3,25,4s14.3,6.7,19.8,12.1
			c5.5,5.4,9.9,12,13.1,19.8s4.8,16.8,4.8,27.1v130.9L1333.9,317.5L1333.9,317.5z"/>
		<path class="st1" d="M1449.9,236.1c0.8,14.3,4.9,25.7,12.5,34.2c7.5,8.4,17.5,12.7,29.8,12.7c8.2,0,15.4-1.9,21.7-5.6
			c6.3-3.7,10.3-8.9,12.1-15.6h51.5c-5.9,19.5-16.1,34.4-30.7,44.9s-32,15.7-52.2,15.7c-63,0-94.5-34.3-94.5-102.9
			c0-14.6,2-27.8,6.1-39.6s10-21.9,17.9-30.3c7.8-8.4,17.3-14.9,28.6-19.4c11.3-4.5,24.2-6.7,38.8-6.7c29.2,0,51.3,9.3,66.2,28
			c15,18.7,22.5,46.8,22.5,84.5L1449.9,236.1L1449.9,236.1z M1528.6,204.6c-0.3-6.9-1.5-13-3.6-18.2c-2.2-5.2-5.1-9.6-8.6-13.1
			c-3.6-3.5-7.7-6-12.3-7.7c-4.6-1.7-9.3-2.5-14.2-2.5c-10,0-18.6,3.6-25.9,10.9c-7.3,7.3-11.5,17.5-12.5,30.5h77.1V204.6z"/>
		<path class="st1" d="M1702.5,193.1h46.5v53.8c0,10-1.5,19.5-4.4,28.6c-2.9,9.1-7.6,17.2-13.8,24.2c-6.3,7-14.2,12.6-23.8,16.7
			c-9.6,4.1-21.1,6.1-34.4,6.1c-13.8,0-25.6-2.1-35.3-6.1c-9.7-4.1-17.7-9.6-24-16.5s-10.8-15-13.6-24.2c-2.8-9.2-4.2-18.9-4.2-29.2
			v-169h49.2v51.1H1749v35.3h-104.4v77.6c0,12,2.2,21.3,6.7,27.8s11.8,9.8,22.1,9.8c10,0,17.3-3.2,22.1-9.6
			c4.7-6.4,7.1-15.5,7.1-27.3L1702.5,193.1L1702.5,193.1z"/>
	</g>
</g>
<g>
	<path class="st2" d="M544.6,37.7c-12.9-7.6-98-0.2-107.5,9.4c-8.3,8.3-35.3,94.1-35.3,95.6c0,6.6,43.6,12,97.4,12
		c53.8,0,97.4-5.4,97.4-12c0-0.4-0.2-0.8-0.5-1.2C591.7,130.6,557.5,45.3,544.6,37.7z"/>
	<path class="st3" d="M448.8,135.9c-2.8-8.1,9.9-31.8,35.7-39.3c25.8-7.5,47,0,47-6.6c0-6.6-15.5-9.4-13.2-12.2
		c2.3-2.8,26.3-8.5,24.4-16.4s-48.4,0-43.6-10.3c4.8-10.3,37.6-13.6,37.6-13.6l-18.4-7L429,42l-38,142.9l172.7-33.2
		C563.7,151.6,451.6,144,448.8,135.9z"/>
	<path class="st4" d="M596.5,142.8c-0.6,6.6-44,11.9-97.4,11.9c-50.6,0-92.1-4.8-97-10.9c-8.8,3-15.2,11.3-15.2,21.1v44.6
		c0,9.4,5.8,17.4,14,20.7c9.9,5.4,50.7,9.5,99.6,9.5c44.4,0,82.2-3.4,96.1-8c11-1.3,19.7-10.8,19.7-22.1v-44.6
		C616.4,153.5,607.6,144,596.5,142.8z"/>
	<path class="st5" d="M432.2,210c-5.6-17.2-24.4-21.3-27.6-25.2c-3.1-3.9,14.4-35.4,14.4-35.4c-9.2-1.6-15.2-3.6-16.8-5.7
		c-0.1,0-0.1,0-0.2,0.1l-10.4,7.5c-2.9,3.8-4.6,8.4-4.6,13.5v44.6c0,9.4,5.8,17.4,14,20.7c9.9,5.4,50.7,9.5,99.6,9.5
		c21.5,0,41.4-0.8,57.8-2.1l20.2-2.2c0.1,0,0.1,0,0.2,0C577.8,235.3,437.8,227.2,432.2,210z"/>
	<path class="st6" d="M413.2,21c-4.6,1.9-27.2,23.4-34.9,76.6c-5.5,38.1-7,107.1-0.6,107.1c13.1,0,58.8-101.2,90-138.4
		C508.9,17.2,548.9,42,548.9,42C540.2,27.6,458.6,2.5,413.2,21z"/>
	<circle class="st4" cx="377.3" cy="219.6" r="37.3"/>
	<path class="st3" d="M378.3,97.6c-3.5,24.3-5.4,61.1-4.7,84.6h3.6c0,0,4.8-84.6,24.4-126c17.7-37.4,39-41.1,43-41.5
		c-11.4,0.6-22.1,2.5-31.4,6.3C408.7,22.9,386,44.4,378.3,97.6z"/>
	<path class="st7" d="M512.4,157.4c-62.6,0-86.1-6.7-88-0.5c-2,6.7,150.3,9.9,154.1,14.4c3.8,4.5-1.9,41.1,3.8,48.2
		c5.6,7.1,13.5,9,24.7,2.4c7.7-4.5,6.3-60.8,0.9-67.3C600.4,145.5,586.3,157.4,512.4,157.4z"/>
	<circle class="st7" cx="382.7" cy="216" r="26.3"/>
	<path class="st8" d="M514.5,46.2c-4.6,3,28.4-1.9,34.4,4.7c6,6.6,17.6,17.9,9.8,19.7c-29.6,7,19,26,5,27.8
		c-14,1.8-53.4,1.2-52.9,5.1c0.5,4,44.8,7.5,52.9,12.6c8.1,5.2,15.8,29.9,24.1,27.6c2.2-0.6,4.9-2.2,7.6-4.1
		c-5.8-14.4-32.2-79.4-46.5-97.8C548.6,42,539,30.3,514.5,46.2z"/>
</g>
</svg>
