<svg id="圖層_1" data-name="圖層 1" xmlns="http://www.w3.org/2000/svg" viewBox="0 0 256 256"><defs><style>.cls-1{fill:#fff;}</style></defs><title>check_w</title><path class="cls-1" d="M128,155.3a27.3,27.3,0,1,1,27.3-27.3A27.3,27.3,0,0,1,128,155.3m58-19.73a60.6,60.6,0,0,0,.55-7.57,66.7,66.7,0,0,0-.55-7.8l16.46-12.71a3.94,3.94,0,0,0,.94-5l-15.6-27A3.83,3.83,0,0,0,183,73.79l-19.42,7.8a56.54,56.54,0,0,0-13.18-7.64l-2.89-20.67a3.94,3.94,0,0,0-3.9-3.28h-31.2a3.94,3.94,0,0,0-3.9,3.28l-2.89,20.67a56.54,56.54,0,0,0-13.18,7.64L73,73.79a3.83,3.83,0,0,0-4.76,1.72l-15.6,27a3.85,3.85,0,0,0,.94,5L70.06,120.2a66.7,66.7,0,0,0-.55,7.8,60.6,60.6,0,0,0,.55,7.57L53.61,148.51a3.85,3.85,0,0,0-.94,5l15.6,27A3.92,3.92,0,0,0,73,182.21l19.42-7.88a54.17,54.17,0,0,0,13.18,7.72l2.89,20.67a3.94,3.94,0,0,0,3.9,3.28h31.2a3.94,3.94,0,0,0,3.9-3.28l2.89-20.67a56.8,56.8,0,0,0,13.18-7.72L183,182.21a3.92,3.92,0,0,0,4.76-1.72l15.6-27a3.94,3.94,0,0,0-.94-5Z"/></svg>